<?xml version="1.0" encoding="UTF-8"?>
<svg version="1.1" xmlns="http://www.w3.org/2000/svg" width="500" height="500">
<path d="M0 0 C0.86908997 -0.00014603 1.73817993 -0.00029205 2.63360596 -0.0004425 C5.4850114 0.00025003 8.33635021 0.00801139 11.18774414 0.01586914 C13.17314112 0.01773566 15.15853855 0.01915846 17.14393616 0.02015686 C22.35366094 0.02396358 27.56335758 0.03377804 32.77307129 0.04486084 C38.09553649 0.0551147 43.41800627 0.05966298 48.74047852 0.06469727 C59.17213147 0.07540204 69.60376358 0.0924562 80.03540039 0.11352539 C80.03540039 1.10352539 80.03540039 2.09352539 80.03540039 3.11352539 C78.13232174 4.70799669 76.24793908 6.12787241 74.22290039 7.55102539 C63.12349862 15.74137721 55.3962379 25.52119038 48.03540039 37.11352539 C46.34424783 38.80467795 44.21204487 38.24707237 41.89575195 38.25537109 C40.79660461 38.26240555 39.69745728 38.26944 38.56500244 38.27668762 C37.36414001 38.2808519 36.16327759 38.28501617 34.92602539 38.28930664 C32.39086107 38.31253036 29.85570482 38.33664867 27.32055664 38.36157227 C23.31830742 38.39650827 19.31659115 38.42591993 15.31420898 38.43945312 C11.45528385 38.45506172 7.59721932 38.49538474 3.73852539 38.53930664 C2.56195374 38.53739822 1.38538208 38.53548981 0.17315674 38.53352356 C-14.84028239 38.75128213 -27.36803925 43.69371548 -38.33959961 53.98852539 C-47.47380369 63.70060769 -52.06266657 76.89083001 -51.96459961 90.11352539 C-51.34784315 104.15284997 -46.06722891 115.90853574 -36.27709961 125.99633789 C-27.98880555 133.58460711 -17.00115476 139.11268872 -5.57910156 139.30297852 C-4.72173904 139.31969604 -3.86437653 139.33641357 -2.98103333 139.3536377 C-2.06424301 139.36721313 -1.1474527 139.38078857 -0.20288086 139.39477539 C1.21671684 139.42238953 1.21671684 139.42238953 2.66499329 139.45056152 C6.71258287 139.52922725 10.76033375 139.5972249 14.80810547 139.66577148 C17.7628645 139.71733961 20.71747353 139.77462654 23.67211914 139.83227539 C24.59498215 139.84585083 25.51784515 139.85942627 26.46867371 139.87341309 C27.31657974 139.89013062 28.16448578 139.90684814 29.03808594 139.92407227 C29.78769089 139.93660034 30.53729584 139.94912842 31.30961609 139.96203613 C33.03540039 140.11352539 33.03540039 140.11352539 34.03540039 141.11352539 C34.13635603 143.76808732 34.17511038 146.39607715 34.16821289 149.05102539 C34.16916962 149.84629639 34.17012634 150.64156738 34.17111206 151.4609375 C34.17179382 153.14559 34.16993982 154.8302451 34.16577148 156.51489258 C34.16042314 159.10251736 34.16571658 161.68996855 34.17211914 164.27758789 C34.17145836 165.91040078 34.17017719 167.54321355 34.16821289 169.17602539 C34.17023712 169.95518311 34.17226135 170.73434082 34.17434692 171.53710938 C34.15035144 176.99857435 34.15035144 176.99857435 33.03540039 178.11352539 C30.16923892 178.22743669 27.32819792 178.27773065 24.46118164 178.28149414 C23.58576218 178.28482254 22.71034271 178.28815094 21.80839539 178.2915802 C19.94290696 178.29665972 18.07740939 178.29898821 16.21191406 178.29882812 C13.40486729 178.30098169 10.59823513 178.31903294 7.79125977 178.33813477 C-21.10068874 178.43029486 -44.40734137 170.730605 -65.71459961 150.86352539 C-82.61273891 133.31306821 -90.39985695 109.49982559 -90.26489258 85.50585938 C-89.64309127 60.70382966 -78.12424947 40.02866477 -60.78491211 22.96899414 C-44.12262518 7.46298691 -22.60285823 -0.10069219 0 0 Z " fill="#F48752" transform="translate(135.964599609375,165.886474609375)"/>
<path d="M0 0 C18.15390051 17.20467696 28.80336037 38.70087363 29.75 63.81640625 C30.20234214 89.57163678 20.50365011 112.29822489 2.6875 130.8125 C-8.05755203 141.14491562 -20.84184031 148.08191061 -35.0625 152.375 C-36.05842163 152.67978271 -36.05842163 152.67978271 -37.07446289 152.99072266 C-48.36423353 156.17462818 -60.18939366 155.6581469 -71.8125 155.63037109 C-74.52870081 155.62494264 -77.24474128 155.63037933 -79.9609375 155.63671875 C-81.6848962 155.63605913 -83.4088548 155.63478037 -85.1328125 155.6328125 C-85.94622101 155.63483673 -86.75962952 155.63686096 -87.59768677 155.63894653 C-93.26000386 155.61499614 -93.26000386 155.61499614 -94.375 154.5 C-94.47595564 151.84543807 -94.51470998 149.21744824 -94.5078125 146.5625 C-94.50876923 145.767229 -94.50972595 144.97195801 -94.51071167 144.15258789 C-94.51139343 142.4679354 -94.50953943 140.78328029 -94.50537109 139.09863281 C-94.50002275 136.51100803 -94.50531619 133.92355684 -94.51171875 131.3359375 C-94.51105797 129.70312461 -94.5097768 128.07031184 -94.5078125 126.4375 C-94.50983673 125.65834229 -94.51186096 124.87918457 -94.51394653 124.07641602 C-94.48995105 118.61495105 -94.48995105 118.61495105 -93.375 117.5 C-90.35331536 117.3888017 -87.35071384 117.33828814 -84.328125 117.32421875 C-82.43097894 117.30098353 -80.53384354 117.2768648 -78.63671875 117.25195312 C-75.64853177 117.21711612 -72.66072672 117.18766247 -69.67236328 117.17407227 C-51.43724673 117.07491863 -36.55679785 115.17126869 -22.5625 102.1875 C-14.03072357 93.02298417 -8.51125443 80.45386258 -8.3203125 67.90625 C-9.08574466 51.26642053 -14.09014792 39.36525343 -26.125 27.75 C-35.38406489 19.68701492 -46.49681073 16.21758149 -58.62695312 16.18115234 C-59.79913391 16.16608391 -59.79913391 16.16608391 -60.99499512 16.15071106 C-63.54874003 16.12010089 -66.10238121 16.10290632 -68.65625 16.0859375 C-70.43844481 16.06720796 -72.22063093 16.04763324 -74.00280762 16.0272522 C-78.67157847 15.97611354 -83.34037802 15.93639052 -88.00927734 15.89910889 C-92.78229768 15.8589542 -97.55520055 15.80791437 -102.328125 15.7578125 C-111.67700059 15.66126974 -121.0259428 15.57679624 -130.375 15.5 C-127.92832258 4.57480748 -114.80203468 -3.34398196 -106.0625 -9.1875 C-72.12702548 -30.0225278 -29.72268592 -25.96204121 0 0 Z " fill="#F48752" transform="translate(333.375,188.5)"/>
<path d="M0 0 C1.08474609 0.04382813 2.16949219 0.08765625 3.28710938 0.1328125 C4.37443359 0.184375 5.46175781 0.2359375 6.58203125 0.2890625 C7.71189453 0.33289063 8.84175781 0.37671875 10.00585938 0.421875 C18.26014543 0.77967668 18.26014543 0.77967668 19.39453125 1.9140625 C20.0675042 8.8265634 19.89512721 15.86383403 19.92163086 22.80249023 C19.94507543 25.15292941 19.99871755 27.50327702 20.08374023 29.85229492 C20.74861853 48.80199525 20.74861853 48.80199525 16.87161255 53.92733765 C13.17559782 57.1977474 9.04524321 59.21243851 4.49073792 61.02958679 C1.04663296 62.48279616 -2.09121768 64.43588955 -5.29296875 66.3515625 C-6.93845703 67.27775391 -6.93845703 67.27775391 -8.6171875 68.22265625 C-10.55901064 69.32175353 -12.48031503 70.45821936 -14.375 71.63671875 C-16.60546875 72.9140625 -16.60546875 72.9140625 -18.60546875 72.9140625 C-18.60546875 49.1540625 -18.60546875 25.3940625 -18.60546875 0.9140625 C-5.09072653 -0.21216602 -5.09072653 -0.21216602 0 0 Z " fill="#F58751" transform="translate(204.60546875,305.0859375)"/>
<path d="M0 0 C7.67802707 7.19726663 11.54690781 15.87481812 12.12109375 26.36328125 C11.78561882 36.60409501 8.28756193 44.82923872 1.1171875 52.08203125 C-6.28450237 58.61795509 -14.32393773 62.01964967 -24.25390625 62.17578125 C-34.21302086 61.38953536 -42.74354445 58.245 -49.62890625 50.86328125 C-57.83753207 40.93001486 -59.36890195 30.68986109 -58.25390625 18.17578125 C-57.42772284 14.74357932 -56.18541256 12.11502999 -54.25390625 9.17578125 C-53.81820312 8.48226562 -53.3825 7.78875 -52.93359375 7.07421875 C-46.91126903 -1.71245174 -39.18712271 -6.05692828 -29.06640625 -8.63671875 C-18.3694105 -9.16280051 -8.3906814 -6.79107143 0 0 Z M-43.09765625 13.4296875 C-47.37368239 19.88706482 -47.01982799 26.67448587 -46.25390625 34.17578125 C-44.06068727 40.40715879 -39.2047144 45.17618856 -33.33984375 48.14453125 C-26.45209231 51.01664382 -20.2412981 50.87266933 -13.25390625 48.17578125 C-6.469579 44.46580497 -2.5746436 39.55317109 -0.25390625 32.17578125 C0.95758112 25.21469399 -0.18725794 19.54577923 -3.6328125 13.40625 C-7.46902872 8.12798624 -12.84239815 4.48425229 -19.25390625 3.17578125 C-29.03161191 1.79517678 -37.03682298 5.80078981 -43.09765625 13.4296875 Z " fill="#84AEA5" transform="translate(228.25390625,229.82421875)"/>
<path d="M0 0 C1.2389502 0.13378052 1.2389502 0.13378052 2.50292969 0.27026367 C10.7147982 1.27665101 18.23823346 3.59862332 26 6.375 C28.03324787 7.09359325 30.06772603 7.8075677 32.10644531 8.51049805 C33.94163855 9.14566915 35.76993551 9.80066745 37.59765625 10.45703125 C41.78375428 11.58646069 45.99860829 12.37569586 50 10.375 C49.64212875 7.72675278 49.31760089 5.81964124 47.75 3.625 C45.55535876 2.05739911 43.64824722 1.73287125 41 1.375 C41 0.715 41 0.055 41 -0.625 C45.15576993 -0.38054295 47.52910749 0.03435436 50.9375 2.5 C53.54599837 6.13608864 53.71777059 7.98862415 53 12.375 C51.5 14.8125 51.5 14.8125 49 16.375 C42.17928826 16.92865417 36.44651996 15.36593507 29.9375 13.4375 C23.96380877 11.69903888 18.19505427 10.05379235 12 9.375 C12.59425781 9.643125 13.18851562 9.91125 13.80078125 10.1875 C24.5037448 15.24768806 33.36106789 22.35465809 42 30.375 C39.82779123 25.93134449 37.62471619 21.5745459 35 17.375 C36.32 17.045 37.64 16.715 39 16.375 C46.88122492 26.96750102 51.65784607 36.1120434 53.375 49.375 C53.52086548 50.4892334 53.52086548 50.4892334 53.66967773 51.62597656 C54.24867956 57.00198067 54.24867956 57.00198067 52 60.375 C49.5625 60.8125 49.5625 60.8125 47 60.375 C44.53691568 58.10896243 43.49187024 55.27036552 42.1875 52.25 C33.47338901 32.18113832 18.11599538 22.87091009 -1.54296875 15.02734375 C-5.93862055 13.34657138 -10.36021794 12.01280224 -14.96875 11.04296875 C-17.36735463 10.25419684 -18.45086521 9.35282617 -20 7.375 C-20.375 4.8125 -20.375 4.8125 -20 2.375 C-14.03607593 -1.60094938 -6.85620706 -0.74718723 0 0 Z " fill="#86ACA2" transform="translate(309,154.625)"/>
<path d="M0 0 C1.08410156 0.00257813 2.16820312 0.00515625 3.28515625 0.0078125 C4.90744141 0.00394531 4.90744141 0.00394531 6.5625 0 C9.34765625 0.1328125 9.34765625 0.1328125 11.34765625 1.1328125 C11.34765625 4.4328125 11.34765625 7.7328125 11.34765625 11.1328125 C12.64703125 11.1121875 13.94640625 11.0915625 15.28515625 11.0703125 C16.63931258 11.04881796 17.99521708 11.06133051 19.34765625 11.1328125 C20.99428367 12.77943992 20.74560724 14.80955303 20.97265625 17.0703125 C21.06804687 17.96621094 21.1634375 18.86210937 21.26171875 19.78515625 C21.34765625 22.1328125 21.34765625 22.1328125 20.34765625 24.1328125 C17.37765625 24.1328125 14.40765625 24.1328125 11.34765625 24.1328125 C11.67765625 30.0728125 12.00765625 36.0128125 12.34765625 42.1328125 C15.31765625 43.1228125 18.28765625 44.1128125 21.34765625 45.1328125 C21.40161103 46.75745092 21.4404282 48.38259791 21.47265625 50.0078125 C21.49585938 50.91273438 21.5190625 51.81765625 21.54296875 52.75 C21.34765625 55.1328125 21.34765625 55.1328125 19.34765625 57.1328125 C12.30529687 58.15241335 6.16609751 57.32151837 0.34765625 53.1328125 C-3.15191108 49.40746664 -3.77890149 46.02730131 -3.75 41.02734375 C-3.74677734 40.04443359 -3.74355469 39.06152344 -3.74023438 38.04882812 C-3.73185547 37.02466797 -3.72347656 36.00050781 -3.71484375 34.9453125 C-3.71033203 33.90955078 -3.70582031 32.87378906 -3.70117188 31.80664062 C-3.68938385 29.24863984 -3.6729289 26.69075517 -3.65234375 24.1328125 C-5.30234375 24.1328125 -6.95234375 24.1328125 -8.65234375 24.1328125 C-8.65234375 20.1728125 -8.65234375 16.2128125 -8.65234375 12.1328125 C-7.33234375 11.8028125 -6.01234375 11.4728125 -4.65234375 11.1328125 C-4.59175781 10.42253906 -4.53117187 9.71226562 -4.46875 8.98046875 C-4.38496094 8.06136719 -4.30117188 7.14226562 -4.21484375 6.1953125 C-4.13363281 5.27878906 -4.05242187 4.36226563 -3.96875 3.41796875 C-3.51556541 0.14496896 -3.34878712 0.16768595 0 0 Z " fill="#F28753" transform="translate(408.65234375,268.8671875)"/>
<path d="M0 0 C1.1859375 0.00257813 2.371875 0.00515625 3.59375 0.0078125 C4.7796875 0.00523437 5.965625 0.00265625 7.1875 0 C10.09375 0.1328125 10.09375 0.1328125 11.09375 1.1328125 C11.19170311 2.50891132 11.22173088 3.88995132 11.22314453 5.26953125 C11.22629669 6.14714111 11.22944885 7.02475098 11.23269653 7.92895508 C11.2306723 8.88310303 11.22864807 9.83725098 11.2265625 10.8203125 C11.22751923 11.79315186 11.22847595 12.76599121 11.22946167 13.76831055 C11.23014358 15.8295905 11.22828853 17.89087258 11.22412109 19.95214844 C11.218773 23.11918938 11.22406572 26.2860885 11.23046875 29.453125 C11.22980797 31.45052115 11.22852681 33.44791721 11.2265625 35.4453125 C11.22858673 36.39946045 11.23061096 37.3536084 11.23269653 38.33666992 C11.22954437 39.21427979 11.22639221 40.09188965 11.22314453 40.99609375 C11.22234894 41.77251221 11.22155334 42.54893066 11.22073364 43.34887695 C11.09375 45.1328125 11.09375 45.1328125 10.09375 46.1328125 C7.92894203 46.2317419 5.76081215 46.2625235 3.59375 46.2578125 C2.4078125 46.26039063 1.221875 46.26296875 0 46.265625 C-2.90625 46.1328125 -2.90625 46.1328125 -3.90625 45.1328125 C-4.00420311 43.75671368 -4.03423088 42.37567368 -4.03564453 40.99609375 C-4.03879669 40.11848389 -4.04194885 39.24087402 -4.04519653 38.33666992 C-4.0431723 37.38252197 -4.04114807 36.42837402 -4.0390625 35.4453125 C-4.04001923 34.47247314 -4.04097595 33.49963379 -4.04196167 32.49731445 C-4.04264358 30.4360345 -4.04078853 28.37475242 -4.03662109 26.31347656 C-4.031273 23.14643562 -4.03656572 19.9795365 -4.04296875 16.8125 C-4.04230797 14.81510385 -4.04102681 12.81770779 -4.0390625 10.8203125 C-4.04108673 9.86616455 -4.04311096 8.9120166 -4.04519653 7.92895508 C-4.04204437 7.05134521 -4.03889221 6.17373535 -4.03564453 5.26953125 C-4.03484894 4.49311279 -4.03405334 3.71669434 -4.03323364 2.91674805 C-3.81515488 -0.14694153 -3.10494066 0.14189245 0 0 Z " fill="#F68651" transform="translate(383.90625,279.8671875)"/>
<path d="M0 0 C3.71733632 2.34054509 5.68988852 3.64678628 6.6875 8 C5.76911264 12.0075085 4.21882518 13.4964693 1 16 C-2.4612958 17.42001879 -3.66996314 17.12942622 -7.1875 15.75 C-10 14 -10 14 -12 11 C-11.92390846 6.81496505 -11.63863176 4.71161825 -8.8125 1.5625 C-5.41373205 -0.32570442 -3.82889966 -0.70326728 0 0 Z " fill="#EE8755" transform="translate(445,310)"/>
<path d="M0 0 C2.4375 1.625 2.4375 1.625 4 4 C4.55326548 7.87285839 4.56331202 10.04481874 2.5625 13.4375 C-1.25138592 15.76304019 -4.66020699 16.01750032 -9 15 C-11.68893681 13.22760824 -12.36187621 11.94862281 -14 9 C-14 5.63548754 -13.6585867 3.86813701 -11.625 1.1875 C-7.74524118 -1.64770837 -4.47114024 -1.01973374 0 0 Z " fill="#EC8854" transform="translate(392,262)"/>
<path d="M0 0 C1.1859375 0.00257813 2.371875 0.00515625 3.59375 0.0078125 C4.7796875 0.00523437 5.965625 0.00265625 7.1875 0 C10.09375 0.1328125 10.09375 0.1328125 11.09375 1.1328125 C11.19170311 2.50891132 11.22173088 3.88995132 11.22314453 5.26953125 C11.22629669 6.14714111 11.22944885 7.02475098 11.23269653 7.92895508 C11.2306723 8.88310303 11.22864807 9.83725098 11.2265625 10.8203125 C11.22751923 11.79315186 11.22847595 12.76599121 11.22946167 13.76831055 C11.23014358 15.8295905 11.22828853 17.89087258 11.22412109 19.95214844 C11.218773 23.11918938 11.22406572 26.2860885 11.23046875 29.453125 C11.22980797 31.45052115 11.22852681 33.44791721 11.2265625 35.4453125 C11.22858673 36.39946045 11.23061096 37.3536084 11.23269653 38.33666992 C11.22954437 39.21427979 11.22639221 40.09188965 11.22314453 40.99609375 C11.22234894 41.77251221 11.22155334 42.54893066 11.22073364 43.34887695 C11.09375 45.1328125 11.09375 45.1328125 10.09375 46.1328125 C7.92894203 46.2317419 5.76081215 46.2625235 3.59375 46.2578125 C2.4078125 46.26039063 1.221875 46.26296875 0 46.265625 C-2.90625 46.1328125 -2.90625 46.1328125 -3.90625 45.1328125 C-4.00420311 43.75671368 -4.03423088 42.37567368 -4.03564453 40.99609375 C-4.03879669 40.11848389 -4.04194885 39.24087402 -4.04519653 38.33666992 C-4.0431723 37.38252197 -4.04114807 36.42837402 -4.0390625 35.4453125 C-4.04001923 34.47247314 -4.04097595 33.49963379 -4.04196167 32.49731445 C-4.04264358 30.4360345 -4.04078853 28.37475242 -4.03662109 26.31347656 C-4.031273 23.14643562 -4.03656572 19.9795365 -4.04296875 16.8125 C-4.04230797 14.81510385 -4.04102681 12.81770779 -4.0390625 10.8203125 C-4.04108673 9.86616455 -4.04311096 8.9120166 -4.04519653 7.92895508 C-4.04204437 7.05134521 -4.03889221 6.17373535 -4.03564453 5.26953125 C-4.03484894 4.49311279 -4.03405334 3.71669434 -4.03323364 2.91674805 C-3.81515488 -0.14694153 -3.10494066 0.14189245 0 0 Z M-1.90625 1.1328125 C-3.62427382 4.56886015 -3.0259118 8.51720146 -3.00390625 12.296875 C-3.0024913 13.20408295 -3.00107635 14.11129089 -2.99961853 15.04598999 C-2.99401096 17.94996405 -2.98145718 20.85386165 -2.96875 23.7578125 C-2.96373598 25.72395722 -2.9591729 27.69010315 -2.95507812 29.65625 C-2.94403906 34.4818004 -2.92676935 39.30729347 -2.90625 44.1328125 C0.08372825 45.62780163 2.79417775 45.24858696 6.09375 45.1328125 C7.57875 44.6378125 7.57875 44.6378125 9.09375 44.1328125 C9.09375 29.9428125 9.09375 15.7528125 9.09375 1.1328125 C5.46375 1.1328125 1.83375 1.1328125 -1.90625 1.1328125 Z " fill="#DC875A" transform="translate(383.90625,279.8671875)"/>
<path d="M0 0 C3.0625 0.3125 3.0625 0.3125 4.9375 1.375 C6.70013183 4.41064371 6.43581109 6.89048172 6.0625 10.3125 C2.59207297 12.62611802 1.14415827 12.82270728 -2.9375 12.3125 C-4.875 10.6875 -4.875 10.6875 -5.9375 8.3125 C-5.64908355 3.50555913 -5.26034464 0.55961113 0 0 Z " fill="#87AFA8" transform="translate(257.9375,218.6875)"/>
<path d="M0 0 C3.3 0 6.6 0 10 0 C10 0.33 10 0.66 10 1 C7.03 1 4.06 1 1 1 C1 23.11 1 45.22 1 68 C2.98 68 4.96 68 7 68 C4.59660228 70.76390737 3.83736322 71.04065919 0 72 C0 48.24 0 24.48 0 0 Z " fill="#DC8758" transform="translate(186,306)"/>
<path d="M0 0 C4.42083165 0.7468201 8.58156741 2.11710006 12.8125 3.5625 C13.85180664 3.91344727 13.85180664 3.91344727 14.91210938 4.27148438 C16.60900114 4.84491676 18.30463078 5.42208169 20 6 C20 6.33 20 6.66 20 7 C11.76126394 7.32906194 4.58398394 6.93182875 -3.35546875 4.66796875 C-6.71451262 3.81952488 -9.56038844 3.76548103 -13 4 C-13 3.01 -13 2.02 -13 1 C-8.17639811 0.80705592 -4.50353262 1.24252386 0 3 C0 2.01 0 1.02 0 0 Z " fill="#81A496" transform="translate(330,160)"/>
<path d="M0 0 C0.99 0.33 1.98 0.66 3 1 C-3.2653913 9.03255295 -9.85376019 14.15522913 -20 16 C-18 13 -18 13 -15.9375 12.125 C-13.70909738 11.13056291 -13.70909738 11.13056291 -13.25 8.375 C-13.1675 7.59125 -13.085 6.8075 -13 6 C-12.67 6.66 -12.34 7.32 -12 8 C-10.68 7.34 -9.36 6.68 -8 6 C-8 6.99 -8 7.98 -8 9 C-7.608125 8.608125 -7.21625 8.21625 -6.8125 7.8125 C-5.32288025 6.32288025 -3.8195404 4.84699295 -2.3125 3.375 C0.11626945 1.43306441 0.11626945 1.43306441 0 0 Z " fill="#84A89B" transform="translate(231,275)"/>
<path d="M0 0 C4.04052022 1.34684007 4.77159201 3.44847477 7 7 C7.98866506 8.34175973 8.9838154 9.67896002 10 11 C9.67 11.66 9.34 12.32 9 13 C8.67 13.99 8.34 14.98 8 16 C7.34 16 6.68 16 6 16 C5.67386719 15.33613281 5.34773438 14.67226562 5.01171875 13.98828125 C2.81990529 9.55939564 0.64737248 5.18006181 -2 1 C-1.34 0.67 -0.68 0.34 0 0 Z " fill="#80A397" transform="translate(346,171)"/>
<path d="M0 0 C-0.99 0.33 -1.98 0.66 -3 1 C-3.33 1.99 -3.66 2.98 -4 4 C-4.66 4 -5.32 4 -6 4 C-6.66 5.32 -7.32 6.64 -8 8 C-9.65 7.67 -11.3 7.34 -13 7 C-12.34 6.67 -11.68 6.34 -11 6 C-11.66 5.67 -12.32 5.34 -13 5 C-12.375 3.125 -12.375 3.125 -11 1 C-6.96362635 -0.88364104 -4.27242501 -1.25659559 0 0 Z " fill="#91B8B1" transform="translate(305,155)"/>
<path d="M0 0 C0 0.66 0 1.32 0 2 C-0.66 2.66 -1.32 3.32 -2 4 C-0.68 3.34 0.64 2.68 2 2 C2.28875 2.78375 2.5775 3.5675 2.875 4.375 C6.09984812 8.35863591 10.09147165 8.38298049 15 9 C15 9.33 15 9.66 15 10 C7.76495234 10.53592946 1.08520578 9.22612447 -4.74609375 4.62109375 C-6.125 3.25 -6.125 3.25 -8 1 C-2.25 0 -2.25 0 0 0 Z " fill="#86A89B" transform="translate(189,281)"/>
<path d="M0 0 C0.598125 0.20625 1.19625 0.4125 1.8125 0.625 C0.3275 2.11 0.3275 2.11 -1.1875 3.625 C-0.74716008 5.60520421 -0.74716008 5.60520421 0.8125 7.625 C3.3988924 8.88652609 6.06450829 9.78143045 8.8125 10.625 C5.58519804 11.70317935 3.83123669 11.57358069 0.6875 10.3125 C0.00429688 10.04824219 -0.67890625 9.78398437 -1.3828125 9.51171875 C-3.1875 8.625 -3.1875 8.625 -5.1875 6.625 C-5.5 4.125 -5.5 4.125 -5.1875 1.625 C-2.1875 -0.375 -2.1875 -0.375 0 0 Z " fill="#8AA495" transform="translate(294.1875,155.375)"/>
<path d="M0 0 C7.03128878 0.43384548 13.329015 1.74321997 20 4 C20 4.33 20 4.66 20 5 C18.7625 5.12375 17.525 5.2475 16.25 5.375 C13.1237803 5.75746305 10.71120763 6.30549523 8 8 C8 6.35 8 4.7 8 3 C5.36 2.34 2.72 1.68 0 1 C0 0.67 0 0.34 0 0 Z " fill="#ED8D54" transform="translate(284,167)"/>
<path d="M0 0 C4.3694206 0.25702474 6.51822991 0.60023333 9.9375 3.4375 C12 6 12 6 12 8 C12.99 8.33 13.98 8.66 15 9 C16.30480865 12.26202163 17.21066812 15.57956185 18 19 C17.34 19.33 16.68 19.66 16 20 C15.76925781 19.33613281 15.53851563 18.67226562 15.30078125 17.98828125 C12.11584277 9.36502884 7.54125242 5.02750161 0 0 Z " fill="#86A399" transform="translate(212,234)"/>
<path d="M0 0 C0.99 0.33 1.98 0.66 3 1 C2.41992188 1.80050781 2.41992188 1.80050781 1.828125 2.6171875 C-2.04394656 8.15693345 -4.74170838 13.63693125 -7 20 C-7.33 19.01 -7.66 18.02 -8 17 C-8.66 16.67 -9.32 16.34 -10 16 C-9.360625 15.773125 -8.72125 15.54625 -8.0625 15.3125 C-5.75449698 14.16553512 -5.75449698 14.16553512 -5.3125 11.5625 C-5.1578125 10.2940625 -5.1578125 10.2940625 -5 9 C-4.67 8.01 -4.34 7.02 -4 6 C-3.34 6 -2.68 6 -2 6 C-1.855625 5.38125 -1.71125 4.7625 -1.5625 4.125 C-1 2 -1 2 0 0 Z " fill="#DF8B5A" transform="translate(93,220)"/>
<path d="M0 0 C0.53625 0.350625 1.0725 0.70125 1.625 1.0625 C4.73274763 2.28924249 6.79431703 1.72856431 10 1 C9.125 5.875 9.125 5.875 8 7 C5.625 7.3125 5.625 7.3125 3 7 C1.1875 5.1875 1.1875 5.1875 0 3 C0 2.01 0 1.02 0 0 Z " fill="#8AA496" transform="translate(353,208)"/>
<path d="M0 0 C3.18019683 2.9238411 5.25351309 5.83401169 7.3125 9.625 C7.84488281 10.58664063 8.37726563 11.54828125 8.92578125 12.5390625 C9.28027344 13.35117188 9.63476562 14.16328125 10 15 C9.67 15.66 9.34 16.32 9 17 C8.01 16.67 7.02 16.34 6 16 C6 14.35 6 12.7 6 11 C5.01 10.67 4.02 10.34 3 10 C1.25327015 6.5065403 0 3.93154432 0 0 Z " fill="#E28B60" transform="translate(346,204)"/>
<path d="M0 0 C5.28 0.33 10.56 0.66 16 1 C16 1.66 16 2.32 16 3 C15.01 3 14.02 3 13 3 C12.67 3.66 12.34 4.32 12 5 C10.18504338 4.55149342 8.37306866 4.09090429 6.5625 3.625 C5.55316406 3.36976563 4.54382813 3.11453125 3.50390625 2.8515625 C1 2 1 2 0 0 Z " fill="#87AFA8" transform="translate(338,166)"/>
<path d="M0 0 C0.33 0 0.66 0 1 0 C1.48032656 8.71703754 0.07313419 16.54704214 -2 25 C-2.99 25 -3.98 25 -5 25 C-4.72285156 23.865625 -4.44570313 22.73125 -4.16015625 21.5625 C-3.79404291 20.04172152 -3.42817037 18.52088505 -3.0625 17 C-2.78889648 15.88431641 -2.78889648 15.88431641 -2.50976562 14.74609375 C-1.33622791 9.8385724 -0.54165676 5.01745212 0 0 Z " fill="#DF8A5A" transform="translate(326,252)"/>
<path d="M0 0 C0.33 0 0.66 0 1 0 C1.99862699 7.36487404 2.10331031 14.57313685 2 22 C1.34 21.67 0.68 21.34 0 21 C-1.18787874 13.96569201 -1.2370572 7.00999081 0 0 Z " fill="#DE8954" transform="translate(361,240)"/>
<path d="M0 0 C0.66 0 1.32 0 2 0 C3.4375 2.15234375 3.4375 2.15234375 5 4.9375 C6.86077895 8.62387208 6.86077895 8.62387208 10 11 C10.75 14.375 10.75 14.375 11 18 C10.34 18.99 9.68 19.98 9 21 C8.68546875 20.07058594 8.3709375 19.14117187 8.046875 18.18359375 C5.83279405 11.78810089 3.67948355 5.72364107 0 0 Z " fill="#E3885C" transform="translate(315,223)"/>
<path d="M0 0 C1.65 0.33 3.3 0.66 5 1 C5.05395478 2.62463842 5.09277195 4.24978541 5.125 5.875 C5.14820313 6.77992188 5.17140625 7.68484375 5.1953125 8.6171875 C5 11 5 11 3 13 C0.6171875 13.1953125 0.6171875 13.1953125 -2.125 13.125 C-3.49011719 13.09792969 -3.49011719 13.09792969 -4.8828125 13.0703125 C-5.58148438 13.04710937 -6.28015625 13.02390625 -7 13 C-7 12.67 -7 12.34 -7 12 C-4.03 12 -1.06 12 2 12 C2.05395478 10.37536158 2.09277195 8.75021459 2.125 7.125 C2.15980469 5.76761719 2.15980469 5.76761719 2.1953125 4.3828125 C2.24324836 1.81193006 2.24324836 1.81193006 0 0 Z " fill="#E08C51" transform="translate(425,313)"/>
<path d="M0 0 C0.82638376 2.89234315 1 4.88742431 1 8 C-1.3125 9.5625 -1.3125 9.5625 -4 11 C-5.75149165 12.58245275 -5.75149165 12.58245275 -7 14 C-5.53967505 8.68972746 -3.01679014 4.53669968 0 0 Z " fill="#E6865A" transform="translate(61,205)"/>
<path d="M0 0 C0.8971875 0.5259375 0.8971875 0.5259375 1.8125 1.0625 C0.25460317 2.19386586 -1.30903857 3.31732321 -2.875 4.4375 C-3.74511719 5.06398438 -4.61523438 5.69046875 -5.51171875 6.3359375 C-8.02346952 7.95665843 -10.38049187 9.06108088 -13.1875 10.0625 C-12.1875 7.0625 -12.1875 7.0625 -9.25 5.375 C-6.1875 4.0625 -6.1875 4.0625 -4.1875 4.0625 C-4.5175 2.7425 -4.8475 1.4225 -5.1875 0.0625 C-2.1875 -0.9375 -2.1875 -0.9375 0 0 Z " fill="#E18C57" transform="translate(326.1875,324.9375)"/>
<path d="M0 0 C2.3431213 0.25561323 4.67843403 0.59270772 7 1 C8.52150158 4.04300316 8.23899393 6.654085 8 10 C4.77208445 12.1519437 3.71599191 12.20086443 0 12 C3.75 10 3.75 10 6 10 C5.25184487 4.45171755 5.25184487 4.45171755 1.875 0.5 C1.25625 0.335 0.6375 0.17 0 0 Z " fill="#89A294" transform="translate(256,219)"/>
<path d="M0 0 C0 0.66 0 1.32 0 2 C-3.63 2.66 -7.26 3.32 -11 4 C-11.33 4.99 -11.66 5.98 -12 7 C-13.32 5.35 -14.64 3.7 -16 2 C-10.54538831 0.61470179 -5.63281599 -0.2396943 0 0 Z " fill="#E68859" transform="translate(127,167)"/>
<path d="M0 0 C3.86481422 1.38576221 6.96807428 3.18919641 10.3125 5.5625 C11.19550781 6.18253906 12.07851563 6.80257812 12.98828125 7.44140625 C13.65214844 7.95574219 14.31601562 8.47007812 15 9 C15 9.33 15 9.66 15 10 C13.35 10 11.7 10 10 10 C9.67 9.01 9.34 8.02 9 7 C6.49552484 5.78130071 6.49552484 5.78130071 4 5 C4 4.34 4 3.68 4 3 C2.68 2.67 1.36 2.34 0 2 C0 1.34 0 0.68 0 0 Z " fill="#D9885C" transform="translate(314,176)"/>
<path d="M0 0 C0.99 0.33 1.98 0.66 3 1 C0.59888822 3.63884562 -2.00555028 5.36413529 -5.0625 7.1875 C-5.94035156 7.71730469 -6.81820312 8.24710937 -7.72265625 8.79296875 C-10 10 -10 10 -12 10 C-12 9.01 -12 8.02 -12 7 C-8.77782908 4.85188606 -6.46300955 4.36206957 -2.7421875 3.66015625 C-2.16726562 3.44230469 -1.59234375 3.22445313 -1 3 C-0.67 2.01 -0.34 1.02 0 0 Z " fill="#E08B5C" transform="translate(205,364)"/>
<path d="M0 0 C0.66 0 1.32 0 2 0 C2.33 1.32 2.66 2.64 3 4 C2.01 4 1.02 4 0 4 C-0.33 6.97 -0.66 9.94 -1 13 C-1.99 13 -2.98 13 -4 13 C-3.40895235 8.15340923 -2.02055843 4.39251833 0 0 Z " fill="#E88A5A" transform="translate(53,220)"/>
<path d="M0 0 C1.60031344 3.20062687 0.03173691 5.72271806 -1 9 C-2.98 9.33 -4.96 9.66 -7 10 C-2.85714286 2.42857143 -2.85714286 2.42857143 0 0 Z " fill="#E48856" transform="translate(69,195)"/>
<path d="M0 0 C6.93 0 13.86 0 21 0 C21 0.99 21 1.98 21 3 C19.02 3.99 19.02 3.99 17 5 C17 4.34 17 3.68 17 3 C13.95786733 1.47893366 10.71952428 1.62570662 7.375 1.4375 C6.66859375 1.39431641 5.9621875 1.35113281 5.234375 1.30664062 C3.48981463 1.20055249 1.74493303 1.09977111 0 1 C0 0.67 0 0.34 0 0 Z " fill="#DD8653" transform="translate(195,166)"/>
<path d="M0 0 C0.33 0 0.66 0 1 0 C1 2.97 1 5.94 1 9 C2.98 9 4.96 9 7 9 C4.59660228 11.76390737 3.83736322 12.04065919 0 13 C0 8.71 0 4.42 0 0 Z " fill="#E39057" transform="translate(186,365)"/>
<path d="M0 0 C0.66 0 1.32 0 2 0 C2 0.66 2 1.32 2 2 C3.65 1.34 5.3 0.68 7 0 C6.814375 0.9075 6.62875 1.815 6.4375 2.75 C6.04265379 5.68314324 6.05308428 7.2644657 7 10 C3.60582235 6.87378374 1.3937282 4.43458973 0 0 Z " fill="#E68857" transform="translate(57,297)"/>
<path d="M0 0 C0.99 0 1.98 0 3 0 C3 2.64 3 5.28 3 8 C2.01 8.33 1.02 8.66 0 9 C-1.125 2.25 -1.125 2.25 0 0 Z " fill="#E38C5E" transform="translate(220,349)"/>
<path d="M0 0 C-3.96 3.465 -3.96 3.465 -8 7 C-10 4 -10 4 -10 2 C-9.01 2 -8.02 2 -7 2 C-6.67 1.34 -6.34 0.68 -6 0 C-2.49056604 -1.24528302 -2.49056604 -1.24528302 0 0 Z " fill="#E88758" transform="translate(209,174)"/>
<path d="M0 0 C1.12894876 0.93274109 2.25300876 1.87140122 3.375 2.8125 C4.00148438 3.33457031 4.62796875 3.85664063 5.2734375 4.39453125 C7 6 7 6 9 9 C6.625 8.75 6.625 8.75 4 8 C2.875 6.0625 2.875 6.0625 2 4 C1.01 3.34 0.02 2.68 -1 2 C-0.67 1.34 -0.34 0.68 0 0 Z " fill="#DF8558" transform="translate(333,189)"/>
<path d="M0 0 C0.598125 0.20625 1.19625 0.4125 1.8125 0.625 C0.83683888 1.79459987 -0.143125 2.96061177 -1.125 4.125 C-1.67027344 4.7746875 -2.21554688 5.424375 -2.77734375 6.09375 C-3.24269531 6.5990625 -3.70804688 7.104375 -4.1875 7.625 C-4.5175 7.625 -4.8475 7.625 -5.1875 7.625 C-5.375 4.75 -5.375 4.75 -5.1875 1.625 C-2.1875 -0.375 -2.1875 -0.375 0 0 Z " fill="#E68756" transform="translate(193.1875,187.375)"/>
<path d="M0 0 C1.14926266 0.95421808 2.29430541 1.91352045 3.4375 2.875 C4.07558594 3.40867188 4.71367187 3.94234375 5.37109375 4.4921875 C7 6 7 6 8 8 C5.125 7.375 5.125 7.375 2 6 C0.625 2.875 0.625 2.875 0 0 Z M1 7 C1.66 7 2.32 7 3 7 C2.67 8.32 2.34 9.64 2 11 C1.67 9.68 1.34 8.36 1 7 Z " fill="#83A999" transform="translate(225,228)"/>
<path d="M0 0 C1.99954746 -0.04254356 4.00041636 -0.04080783 6 0 C6.33 0.33 6.66 0.66 7 1 C7.66 1.33 8.32 1.66 9 2 C9.625 4.5625 9.625 4.5625 10 7 C6.42032008 5.34784004 3.22017048 3.26875648 0 1 C0 0.67 0 0.34 0 0 Z " fill="#85A397" transform="translate(326,177)"/>
<path d="M0 0 C0.99 0.33 1.98 0.66 3 1 C3.79953138 4.28696233 4.09658936 5.71023192 3 9 C1.35 6.69 -0.3 4.38 -2 2 C-1.34 1.34 -0.68 0.68 0 0 Z " fill="#98AE9F" transform="translate(346,171)"/>
<path d="M0 0 C1.1055189 0.93590504 2.20935453 1.87379858 3.3125 2.8125 C3.92738281 3.33457031 4.54226562 3.85664063 5.17578125 4.39453125 C6.85424679 5.87172469 8.43882034 7.40039131 10 9 C3.50534008 7.65205171 3.50534008 7.65205171 1.0625 4.5 C0 2 0 2 0 0 Z " fill="#E0885B" transform="translate(97,290)"/>
<path d="M0 0 C0 0.99 0 1.98 0 3 C-1 4 -1 4 -3.72265625 4.09765625 C-5.37587891 4.08025391 -5.37587891 4.08025391 -7.0625 4.0625 C-8.16722656 4.05347656 -9.27195313 4.04445312 -10.41015625 4.03515625 C-11.69212891 4.01775391 -11.69212891 4.01775391 -13 4 C-13 3.67 -13 3.34 -13 3 C-10.69 3 -8.38 3 -6 3 C-6 2.34 -6 1.68 -6 1 C-4.7934375 1.0309375 -4.7934375 1.0309375 -3.5625 1.0625 C-1.06645115 1.29633621 -1.06645115 1.29633621 0 0 Z " fill="#E1865B" transform="translate(184,200)"/>
<path d="M0 0 C1.33597652 0.80814651 2.668725 1.62163181 4 2.4375 C5.11375 3.11619141 5.11375 3.11619141 6.25 3.80859375 C6.8275 4.20175781 7.405 4.59492188 8 5 C8 5.33 8 5.66 8 6 C6.35 6 4.7 6 3 6 C3 6.66 3 7.32 3 8 C2.34 8 1.68 8 1 8 C1.33 6.35 1.66 4.7 2 3 C1.34 3 0.68 3 0 3 C0 2.01 0 1.02 0 0 Z " fill="#87A59C" transform="translate(187,272)"/>
<path d="M0 0 C0.33 0 0.66 0 1 0 C1.16843931 2.24986799 1.33468654 4.49990017 1.5 6.75 C1.5928125 8.00296875 1.685625 9.2559375 1.78125 10.546875 C1.93838402 13.02734771 2 15.51455517 2 18 C0 16 0 16 -0.1953125 12.3046875 C-0.182009 10.82799892 -0.15814835 9.35137642 -0.125 7.875 C-0.11146484 6.74384766 -0.11146484 6.74384766 -0.09765625 5.58984375 C-0.0740687 3.72642746 -0.03819719 1.86317407 0 0 Z " fill="#88A698" transform="translate(170,249)"/>
<path d="M0 0 C2.0625 0.4375 2.0625 0.4375 4 1 C2.60667426 4.36720387 1.0210714 5.9859524 -2 8 C-2 7.01 -2 6.02 -2 5 C-1.34 5 -0.68 5 0 5 C-0.2784375 4.0409375 -0.2784375 4.0409375 -0.5625 3.0625 C-0.7790625 2.0415625 -0.7790625 2.0415625 -1 1 C-0.67 0.67 -0.34 0.34 0 0 Z " fill="#8BA79A" transform="translate(187,235)"/>
<path d="M0 0 C1.32 0.33 2.64 0.66 4 1 C4 1.99 4 2.98 4 4 C5.32 4 6.64 4 8 4 C7.34 5.32 6.68 6.64 6 8 C1.125 3.375 1.125 3.375 0 0 Z " fill="#77AA9D" transform="translate(313,160)"/>
<path d="M0 0 C1.1875 1.625 1.1875 1.625 2 4 C0.625 7.25 0.625 7.25 -1 10 C-1.33 10 -1.66 10 -2 10 C-2.25 3.375 -2.25 3.375 0 0 Z " fill="#F18E47" transform="translate(424,312)"/>
<path d="M0 0 C1.98 0.66 3.96 1.32 6 2 C6.33 3.98 6.66 5.96 7 8 C3.75700849 5.61042731 1.49097658 3.7952131 0 0 Z " fill="#E58759" transform="translate(64,308)"/>
<path d="M0 0 C0.66 0.99 1.32 1.98 2 3 C1.01 4.485 1.01 4.485 0 6 C-0.66 6 -1.32 6 -2 6 C-2.33 7.32 -2.66 8.64 -3 10 C-4.32 9.67 -5.64 9.34 -7 9 C-6.21625 8.2575 -5.4325 7.515 -4.625 6.75 C-2.43495469 4.45566682 -1.17268614 2.87841142 0 0 Z " fill="#85A595" transform="translate(226,265)"/>
<path d="M0 0 C0.66 0 1.32 0 2 0 C2 2.31 2 4.62 2 7 C-0.31 5.35 -2.62 3.7 -5 2 C-4.34 1.67 -3.68 1.34 -3 1 C-2.01 1.33 -1.02 1.66 0 2 C0 1.34 0 0.68 0 0 Z " fill="#E6895A" transform="translate(307,210)"/>
<path d="M0 0 C1.6045556 0.14148989 3.20863767 0.28835686 4.8125 0.4375 C5.70582031 0.51871094 6.59914063 0.59992188 7.51953125 0.68359375 C10 1 10 1 13 2 C13 2.66 13 3.32 13 4 C8.61667943 3.17812739 4.32059823 2.09845718 0 1 C0 0.67 0 0.34 0 0 Z " fill="#D98B5B" transform="translate(284,167)"/>
<path d="M0 0 C0.6875 1.75 0.6875 1.75 1 4 C-0.4375 6.25 -0.4375 6.25 -2 8 C-2.66 7.34 -3.32 6.68 -4 6 C-3.67 5.67 -3.34 5.34 -3 5 C-3 4.01 -3 3.02 -3 2 C-2.01 1.34 -1.02 0.68 0 0 Z " fill="#84B1A7" transform="translate(296,155)"/>
<path d="M0 0 C1.65 0 3.3 0 5 0 C5 0.99 5 1.98 5 3 C3.35 3.33 1.7 3.66 0 4 C0 2.68 0 1.36 0 0 Z " fill="#F48C48" transform="translate(301,298)"/>
<path d="M0 0 C0 0.66 0 1.32 0 2 C-2.97 2 -5.94 2 -9 2 C-9 1.34 -9 0.68 -9 0 C-3.375 -1.125 -3.375 -1.125 0 0 Z " fill="#E48960" transform="translate(429,291)"/>
<path d="M0 0 C2.15377564 2.62198774 3.40072174 4.64404172 4 8 C3.01 8.33 2.02 8.66 1 9 C0.67 6.03 0.34 3.06 0 0 Z " fill="#E08959" transform="translate(87,275)"/>
<path d="M0 0 C1.65 0 3.3 0 5 0 C1.25 5.875 1.25 5.875 -1 7 C-1 6.01 -1 5.02 -1 4 C-0.34 4 0.32 4 1 4 C0.67 2.68 0.34 1.36 0 0 Z " fill="#EB885E" transform="translate(340,308)"/>
<path d="M0 0 C0.66 0 1.32 0 2 0 C0.6302836 3.99500618 -1.25722422 6.80009492 -4 10 C-3.43697042 6.05879291 -2.3208055 3.2491277 0 0 Z " fill="#E18860" transform="translate(349,298)"/>
<path d="M0 0 C2.0625 0.4375 2.0625 0.4375 4 1 C3.01 1.495 3.01 1.495 2 2 C1.31527335 3.88764903 1.31527335 3.88764903 0.875 6.0625 C0.70742188 6.79597656 0.53984375 7.52945312 0.3671875 8.28515625 C0.24601562 8.85105469 0.12484375 9.41695313 0 10 C-0.66 9.67 -1.32 9.34 -2 9 C-1.125 1.125 -1.125 1.125 0 0 Z " fill="#D28D5E" transform="translate(406,269)"/>
<path d="M0 0 C1 2 1 2 0.4375 4 C-1.57302108 6.79724672 -3.74418077 7.15065585 -7 8 C-6.02133662 6.85373678 -5.04205413 5.70800212 -4.0625 4.5625 C-3.51722656 3.92441406 -2.97195312 3.28632813 -2.41015625 2.62890625 C-1.63204305 1.73008851 -0.84063472 0.84063472 0 0 Z " fill="#E1895C" transform="translate(211,193)"/>
<path d="M0 0 C0.66 0.66 1.32 1.32 2 2 C1.01 3.485 1.01 3.485 0 5 C-0.33 5.66 -0.66 6.32 -1 7 C-2.32 5.35 -3.64 3.7 -5 2 C-4.360625 1.855625 -3.72125 1.71125 -3.0625 1.5625 C-1.02454854 1.18992819 -1.02454854 1.18992819 0 0 Z " fill="#E68958" transform="translate(76,314)"/>
<path d="M0 0 C0.99 1.32 1.98 2.64 3 4 C1.35 4.66 -0.3 5.32 -2 6 C-2.33 5.01 -2.66 4.02 -3 3 C-2.34 3 -1.68 3 -1 3 C-0.67 2.01 -0.34 1.02 0 0 Z " fill="#8CB2AC" transform="translate(237,249)"/>
<path d="M0 0 C0.66 0.66 1.32 1.32 2 2 C1.67 2.99 1.34 3.98 1 5 C-0.98 4.34 -2.96 3.68 -5 3 C-4 1 -4 1 -2.0625 0.25 C-1.381875 0.1675 -0.70125 0.085 0 0 Z " fill="#8AB4AA" transform="translate(329,159)"/>
<path d="M0 0 C2.475 0.495 2.475 0.495 5 1 C4.67 3.64 4.34 6.28 4 9 C3.67 9 3.34 9 3 9 C2.87625 7.88625 2.7525 6.7725 2.625 5.625 C2.3534187 1.96896323 2.3534187 1.96896323 0 0 Z " fill="#DB8A5F" transform="translate(425,313)"/>
<path d="M0 0 C2.97 0.33 5.94 0.66 9 1 C5 3 5 3 2 4 C1.34 3.67 0.68 3.34 0 3 C0 2.01 0 1.02 0 0 Z " fill="#E9865E" transform="translate(125,305)"/>
<path d="M0 0 C0.99 0.66 1.98 1.32 3 2 C-1.95 3.485 -1.95 3.485 -7 5 C-4.78414572 1.67621858 -3.77126791 1.01180358 0 0 Z " fill="#8AA696" transform="translate(218,286)"/>
<path d="M0 0 C0.66 0.66 1.32 1.32 2 2 C1.01 4.31 0.02 6.62 -1 9 C-1.33 8.01 -1.66 7.02 -2 6 C-2.66 5.67 -3.32 5.34 -4 5 C-2.68 4.34 -1.36 3.68 0 3 C0 2.01 0 1.02 0 0 Z " fill="#E9875E" transform="translate(87,231)"/>
<path d="M0 0 C0.66 0.33 1.32 0.66 2 1 C2 2.32 2 3.64 2 5 C-0.31 5.33 -2.62 5.66 -5 6 C-3.35 4.02 -1.7 2.04 0 0 Z " fill="#87A396" transform="translate(183,228)"/>
<path d="M0 0 C1.10844919 3.32534757 0.84454356 5.62182575 0 9 C-0.66 8.34 -1.32 7.68 -2 7 C-1.43181818 1.43181818 -1.43181818 1.43181818 0 0 Z " fill="#839F90" transform="translate(254,220)"/>
<path d="M0 0 C1.32 0.33 2.64 0.66 4 1 C2.35 2.65 0.7 4.3 -1 6 C-1.33 4.68 -1.66 3.36 -2 2 C-1.34 2 -0.68 2 0 2 C0 1.34 0 0.68 0 0 Z " fill="#E58856" transform="translate(101,212)"/>
<path d="M0 0 C0.33 0.66 0.66 1.32 1 2 C0.67 2.99 0.34 3.98 0 5 C-1.98 5.33 -3.96 5.66 -6 6 C-4 4 -2 2 0 0 Z " fill="#E2865A" transform="translate(85,181)"/>
<path d="M0 0 C0.33 0.66 0.66 1.32 1 2 C-1 5 -1 5 -4.125 5.6875 C-5.07375 5.790625 -6.0225 5.89375 -7 6 C-2.25 1.125 -2.25 1.125 0 0 Z " fill="#DD865D" transform="translate(228,179)"/>
</svg>
